<!DOCTYPE svg PUBLIC "-//W3C//DTD SVG 20010904//EN" "http://www.w3.org/TR/2001/REC-SVG-20010904/DTD/svg10.dtd">
<svg version="1.0" xmlns="http://www.w3.org/2000/svg" width="776px" height="474px" viewBox="0 0 7760 4740" preserveAspectRatio="xMidYMid meet">
<g id="layer1" fill="#f39600" stroke="none">
 <path d="M6897 4726 c-99 -29 -159 -101 -161 -194 l-1 -57 47 3 c81 6 100 15 112 51 18 55 55 75 144 79 65 3 84 0 122 -20 60 -31 90 -89 90 -172 l0 -59 -23 21 c-41 39 -97 56 -183 56 -68 0 -90 -5 -136 -27 -149 -73 -229 -258 -200 -458 21 -148 98 -261 210 -312 72 -33 200 -30 267 5 28 14 61 37 74 51 l23 25 229 -189 c125 -104 233 -189 239 -189 5 0 10 6 10 13 0 6 -76 117 -169 245 l-169 233 -4 327 c-6 391 -9 406 -97 493 -35 36 -71 61 -96 69 -60 19 -270 22 -328 6z m266 -460 c73 -42 92 -93 92 -241 0 -105 -3 -125 -22 -161 -80 -149 -256 -149 -336 1 -19 35 -22 56 -22 160 0 114 2 123 29 172 23 41 40 58 80 79 62 31 114 29 179 -10z"/>
 <path d="M6130 4441 c-88 -29 -172 -97 -210 -170 -64 -127 -67 -330 -7 -461 31 -66 115 -144 184 -171 77 -30 214 -32 291 -6 68 24 162 110 197 180 53 110 56 318 6 432 -28 63 -104 140 -170 172 -48 23 -71 27 -161 30 -58 1 -116 -1 -130 -6z m211 -147 c44 -22 88 -81 105 -141 26 -88 16 -224 -22 -292 -78 -145 -280 -145 -354 0 -39 75 -44 238 -11 323 27 68 74 109 146 127 37 9 101 1 136 -17z"/>
 <path d="M1779 4432 c-1 -4 -1 -15 0 -24 3 -27 -33 -100 -94 -195 -31 -47 -53 -89 -48 -94 4 -4 105 -22 223 -39 257 -37 526 -87 710 -133 l135 -33 6 -39 c4 -22 9 -140 12 -262 l5 -223 -107 0 -107 0 -194 92 c-284 133 -480 210 -498 195 -39 -32 -263 -320 -255 -328 4 -4 82 -33 172 -64 300 -102 672 -262 821 -353 l35 -22 -352 0 -352 0 -3 138 -3 137 -220 0 -220 0 0 -355 0 -355 1790 0 1790 0 0 355 0 355 -152 3 -153 3 0 69 0 70 163 0 c89 0 193 5 230 10 164 24 266 131 267 281 0 79 -33 153 -87 198 l-36 29 39 20 c128 66 176 232 109 380 -38 85 -96 136 -189 165 -66 20 -90 22 -341 22 l-270 0 -3 -437 c-1 -241 -4 -438 -5 -438 -2 0 -52 30 -113 66 -147 88 -494 258 -681 333 -538 216 -1153 372 -1778 451 -237 30 -245 30 -246 22z m3369 -167 c30 -9 59 -26 71 -41 70 -89 41 -219 -59 -262 -26 -12 -82 -17 -212 -20 l-178 -4 0 171 0 171 163 0 c117 0 178 -4 215 -15z m-27 -495 c55 -15 82 -50 87 -114 3 -38 -1 -64 -14 -91 -28 -59 -61 -68 -256 -73 l-168 -4 0 146 0 146 158 0 c86 0 173 -5 193 -10z m-1436 -215 c121 -52 258 -112 305 -134 l85 -40 -599 -1 c-462 0 -597 3 -588 12 6 6 96 84 199 173 l187 162 96 -39 c52 -22 194 -82 315 -133z m925 -590 l0 -55 -679 0 -678 0 -114 54 -114 55 793 0 792 1 0 -55z"/>
 <path d="M5585 4428 c-3 -7 -4 -256 -3 -553 l3 -540 75 0 75 0 0 550 0 550 -73 3 c-52 2 -74 -1 -77 -10z"/>
 <path d="M1655 2388 c-3 -7 -4 -222 -3 -478 l3 -465 682 -3 683 -2 5 -23 c18 -72 154 -682 152 -683 -1 -1 -715 117 -1587 262 -872 145 -1586 264 -1588 264 -2 0 -2 -8 0 -17 2 -14 369 -119 1818 -524 998 -278 1818 -505 1823 -502 4 2 7 146 7 320 l0 316 28 -6 c15 -3 900 -190 1967 -415 1781 -375 2056 -432 2101 -432 13 0 13 2 2 13 -7 7 -947 330 -2089 717 l-2076 705 621 5 621 5 0 475 0 475 -1583 3 c-1261 2 -1584 0 -1587 -10z m895 -458 l0 -220 -145 0 -145 0 0 220 0 220 145 0 145 0 0 -220z m830 0 l0 -220 -145 0 -145 0 0 220 0 220 145 0 145 0 0 -220z m830 0 l0 -220 -145 0 -145 0 0 220 0 220 145 0 145 0 0 -220z"/>
 </g>

</svg>